<svg xmlns="http://www.w3.org/2000/svg" width="343.011" height="120.15" viewBox="0 0 343.01099 120.15"><path d="M201.232 46.08v.71h-1.978v5.178h-.811V46.79h-1.985v-.71h4.774zM201.94 46.08h1.145l1.689 4.975 1.683-4.975h1.137v5.888h-.762v-3.476-.596c.013-.279.02-.571.02-.888l-1.686 4.96h-.787l-1.701-4.96v.18c0 .145.01.354.016.656.009.294.009.512.009.647v3.476h-.762V46.08z" fill="#fff"/><path d="M105.535 4.091S105.792.534 109.499 0h79.103s3.422.411 4.061 3.861v43.803s.131 4.092-4.509 4.454h-44.042v11.773s-.374 4.719-3.054-.369l-6.437-11.315h-24.893s-3.972-.504-4.194-4.726V4.091z" fill="#1f60ac"/><path d="M18.273 66.681H0v-6.595h44.472v6.595H26.115v53.469h-7.842V66.681zM97.142 91.983H73.883v21.66h26.025v6.506H66.047V60.086h32.527v6.503H73.883v18.986h23.259v6.408zM157.836 120.149l-7.749-13.278c-3.125-5.081-4.997-8.377-6.862-11.853h-.178c-1.694 3.476-3.482 6.68-6.512 11.941l-7.22 13.189h-8.902l18.345-30.387-17.637-29.677h9l7.929 14.079c2.23 3.919 3.927 6.949 5.525 10.159h.263c1.696-3.564 3.219-6.331 5.442-10.159l8.111-14.079h9l-18.263 29.229 18.707 30.835h-8.999zM202.916 66.681h-18.265v-6.595h44.464v6.595h-18.356v53.469h-7.843V66.681zM281.787 91.983H258.52v21.66h26.021v6.506h-33.854V60.086h32.521v6.503h-24.687v18.986h23.267v6.408zM309.504 60.086h7.834v53.558h25.673v6.506h-33.507V60.086zM109.574 7.519s.239-3 3.597-3.448h71.769s3.11.346 3.688 3.255v36.9s.12 3.452-4.099 3.754l-42.838-.03.056 7.99s.337 4.982-2.346-1.063l-3.527-6.995-22.33.053s-3.765-.301-3.97-3.858V7.519z" fill="#fff"/></svg>