<svg xmlns="http://www.w3.org/2000/svg" width="193.613" height="146.403" viewBox="0 0 193.61282 146.40266"><path d="M0 9.09S.572 1.187 8.81 0h175.779s7.604.914 9.023 8.58v97.337s.291 9.092-10.02 9.897H85.724v26.162s-.832 10.486-6.786-.82l-14.303-25.143H9.319S.492 114.891 0 105.51V9.09z" fill="#005eb8"/><path d="M8.975 16.708s.531-6.666 7.992-7.663h159.482s6.911.77 8.196 7.233v81.996s.267 7.673-9.107 8.344l-95.194-.066.124 17.756s.75 11.069-5.213-2.364L67.417 106.4l-49.62.117s-8.365-.668-8.821-8.572V16.708z" fill="#fff"/></svg>