<svg xmlns="http://www.w3.org/2000/svg" width="343.011" height="60.066" viewBox="0 0 343.01099 60.066002"><path d="M18.273 6.597H0V.002h44.472v6.595H26.115v53.469h-7.842V6.597zM97.142 31.899H73.883v21.66h26.025v6.506H66.047V.002h32.527v6.503H73.883v18.986h23.259v6.408zM157.836 60.065l-7.749-13.278c-3.125-5.081-4.997-8.377-6.862-11.853h-.178c-1.694 3.476-3.482 6.68-6.512 11.941l-7.22 13.189h-8.902l18.345-30.387L121.121 0h9l7.929 14.079c2.23 3.919 3.927 6.949 5.525 10.159h.263c1.696-3.564 3.219-6.331 5.442-10.159L157.391 0h9l-18.263 29.229 18.707 30.835h-8.999zM202.916 6.597h-18.265V.002h44.464v6.595h-18.356v53.469h-7.843V6.597zM281.787 31.899H258.52v21.66h26.021v6.506h-33.854V.002h32.521v6.503h-24.687v18.986h23.267v6.408zM309.504.002h7.834V53.56h25.673v6.506h-33.507V.002z" fill="#fff"/></svg>